# xmcd
#
# Track frame offsets: 
#        150
#        11774
#        21401
#        33833
#        45592
#        66640
#        78241
#        90745
#        102240
#        115018
#        125644
#        135925
#        153244
#        165381
#        176297
#        190438
#        205123
#        218452
#        230487
#        241611
#        255390
#
# Disc length: 3601 seconds
#
# Revision: 0
# Processed by: cddbd v1.5.2PL0 Copyright (c) Steve Scherf et al.
# Submitted via: ExactAudioCopy v1.1
#
DISCID=070e0f15
DTITLE=Various Artists  - All-Time Country Favourites 1970-1974 Disc 3
DYEAR=2010
DGENRE=Country
TTITLE0=Johnny Cash - A thing called love
TTITLE1=Porter Wagonner and Dolly Parton - If teardrops were pennies
TTITLE2=Charlie Rich - A very special love song
TTITLE3=Tammy Wynette - Another lonely song
TTITLE4=John Denver - Rocky mountain high
TTITLE5=Sonny James - Here comes Honey again
TTITLE6=Donna Fargo - Funny face
TTITLE7=Don Gibson - One day at a time
TTITLE8=Glen Campbell - Bonaparte's retreat
TTITLE9=Charley Pride - I'm just me
TTITLE10=David Houston - Baby, baby ( I know you're a lady )
TTITLE11=Ray Price - She's got to be a saint
TTITLE12=Willie Nelson - I'm a memory
TTITLE13=Waylon Jennings - This time
TTITLE14=George Jones - The grand tour
TTITLE15=Jerry Wallace - Do you know what it's like to be lonesome
TTITLE16=Slim Whitman - Something beautiful ( to remember )
TTITLE17=Jeannie C. Riley - Good enough to be your wife
TTITLE18=Charlie Rich - There won't be anymore
TTITLE19=Dolly Parton - Joshua
TTITLE20=Ray Stevens - The Streak
EXTD=
EXTT0=
EXTT1=
EXTT2=
EXTT3=
EXTT4=
EXTT5=
EXTT6=
EXTT7=
EXTT8=
EXTT9=
EXTT10=
EXTT11=
EXTT12=
EXTT13=
EXTT14=
EXTT15=
EXTT16=
EXTT17=
EXTT18=
EXTT19=
EXTT20=
PLAYORDER=
